<svg xmlns="http://www.w3.org/2000/svg" width="20" height="20" viewBox="0 0 20 20" fill="none">
  <path d="M3 3l14 14" stroke="#212121" stroke-width="1.5" stroke-linecap="round"/>
  <path d="M8.252 5.005A9.532 9.532 0 0 1 10 4.5c4.2 0 7.343 2.55 8.75 5.5a10.56 10.56 0 0 1-2.236 2.934" stroke="#212121" stroke-width="1.5" stroke-linecap="round" stroke-linejoin="round"/>
  <path d="M12.937 11.876A2.75 2.75 0 0 0 8.124 7.063" stroke="#212121" stroke-width="1.5" stroke-linecap="round"/>
  <path d="M6.773 8.455A2.738 2.738 0 0 0 7.25 10c0 1.519 1.231 2.75 2.75 2.75.547 0 1.057-.16 1.485-.437" stroke="#212121" stroke-width="1.5" stroke-linecap="round"/>
  <path d="M6.048 13.407A9.848 9.848 0 0 1 1.25 10a10.57 10.57 0 0 1 2.411-3.105" stroke="#212121" stroke-width="1.5" stroke-linecap="round" stroke-linejoin="round"/>
</svg>
